<?xml version="1.0" encoding="UTF-8"?>
<svg id="Layer_1" data-name="Layer 1" xmlns="http://www.w3.org/2000/svg" viewBox="0 0 359.31 182.04">
  <defs>
    <style>
      .cls-1 {
        fill: #55f99a;
      }

      .cls-2 {
        fill: #465c65;
      }
    </style>
  </defs>
  <path class="cls-2" d="M199.02,132.56c7.83,9.33,17.35,17.03,27.81,24.08,25.31,17.08,57.26,17.84,83.59,2.08,24.95-14.94,38.96-43.42,36.71-73.09-2.72-35.74-28.33-64.49-63.95-70.19-32.43-5.19-57.09,9.05-79.77,30.92-21.32,20.57-37.73,44.67-57.75,66.44-12.89,14.02-30.47,30.6-50.08,32.86-31.63,3.64-59-21.22-59.63-52.37s25.81-57.12,57.64-54.81c5.45.4,10.32,1.96,15.21,4.04,3.39,1.44,4.45,5.38,2.76,8.52-1.01,1.88-2.7,2.99-3.38,5.22l39.27-.07-11.82-37c-2.01,1.99-2.97,3.91-4.53,4.68-2.43,1.2-4.56.56-6.87-.64-9.17-4.76-18.79-7.95-29.09-8.66C48.56,11.36,10.11,49.51,12.05,95.49c1.92,45.44,43.02,80.56,88.99,73.59,58.89-8.94,93.37-95.31,141.46-123.19,11.82-6.85,24.65-9.04,38.02-6.63,23.71,4.28,40.46,23.2,42.61,47.14,1.56,17.36-4.47,34.28-17.17,45.74-12.8,11.54-30.61,16.61-47.66,12.48-9.14-2.21-17.1-6.73-24.3-12.43-1.75-1.39-1.12-4.2-1.2-6.35,7.75-9.53,10.98,3.07,28.19,7.15,13.2,3.14,26.96-.85,36.83-9.74,9.97-8.97,14.68-22.34,13.31-35.99-1.84-18.4-14.69-32.77-32.88-36.18-9.9-1.85-19.35-.41-28.26,4.41-16.41,8.88-31.06,25.79-43.01,40.17l-28.86,34.71c-18.32,22.03-44.23,45.05-72.85,50.16C51.8,190.09,2.94,150.03.13,96.96-2.72,43.2,42.27-1.47,96.7,2.64c10.32.78,20.04,3.82,29.69,8.18,4.51-4.35,6.34-11.73,12.33-10.73,1.75.29,3.92,1.6,4.69,4.02l18.03,56.69c1.19,3.75-2.01,7.39-5.75,7.39l-59.86.03c-2.4,0-4.23-1.5-5.05-2.79-3.49-5.52,3.37-9.31,5.6-14.49-25.25-4.3-47.84,15.35-48.44,40.18s21.65,46.11,47.29,42.45c16.35-2.33,35.27-20.97,45.52-33.27l30.55-36.69C201.29,27.59,235.87-5.18,286.68,3.86c32.27,5.74,58.45,28.22,68.23,59.59,16.26,52.13-13.87,106.36-67.67,116.87-39.61,7.73-70.14-11.45-96.53-38.53-2.71-2.78-3.71-6.13-.92-9.3,1.65-1.88,6.75-2.88,9.23.08Z"/>
  <path class="cls-1" d="M199.02,132.56c9.77-6.76,22.26-9.78,33.76-6.72.08,2.15-.55,4.96,1.2,6.35,7.19,5.7,15.16,10.22,24.3,12.43,17.05,4.13,34.86-.94,47.66-12.48,12.71-11.45,18.73-28.38,17.17-45.74-2.15-23.95-18.9-42.86-42.61-47.14-13.37-2.42-26.2-.22-38.02,6.63-48.09,27.88-82.57,114.25-141.46,123.19-45.96,6.97-87.07-28.15-88.99-73.59C10.11,49.51,48.56,11.36,95.13,14.56c10.3.71,19.92,3.9,29.09,8.66,2.32,1.2,4.44,1.84,6.87.64,1.56-.77,2.52-2.69,4.53-4.68l11.82,37-39.27.07c.69-2.23,2.37-3.34,3.38-5.22,1.69-3.14.63-7.07-2.76-8.52-4.89-2.09-9.76-3.65-15.21-4.04-31.83-2.31-58.28,23.46-57.64,54.81s28,56.01,59.63,52.37c19.61-2.26,37.2-18.84,50.08-32.86,20.02-21.78,36.43-45.88,57.75-66.44,22.68-21.87,47.33-36.11,79.77-30.92,35.63,5.71,61.23,34.45,63.95,70.19,2.26,29.67-11.76,58.15-36.71,73.09-26.33,15.77-58.27,15-83.59-2.08-10.46-7.06-19.98-14.75-27.81-24.08Z"/>
  <circle class="cls-2" cx="221.55" cy="110.13" r="5.95"/>
</svg>